<?xml version="1.0" encoding="utf-8"?>
<!-- Generator: Adobe Illustrator 24.1.1, SVG Export Plug-In . SVG Version: 6.00 Build 0)  -->
<svg version="1.1" xmlns="http://www.w3.org/2000/svg" xmlns:xlink="http://www.w3.org/1999/xlink" x="0px" y="0px"
	 viewBox="0 0 3710 3710" style="enable-background:new 0 0 3710 3710;" xml:space="preserve">
<style type="text/css">
	.st0{fill:#FFFFFF;}
	.st1{fill:url(#SVGID_1_);}
	.st2{fill:#91B3FA;}
	.st3{fill:#BDD0FB;}
	.st4{fill:url(#SVGID_2_);}
	.st5{fill:#7D97F4;}
	.st6{fill:url(#SVGID_3_);}
	.st7{opacity:0.53;fill:#BDD0FB;}
	.st8{fill:url(#SVGID_4_);}
	.st9{fill:url(#SVGID_5_);}
	.st10{fill:url(#SVGID_6_);}
	.st11{fill:url(#SVGID_7_);}
	.st12{fill:url(#SVGID_8_);}
	.st13{fill:url(#SVGID_9_);}
	.st14{fill:url(#SVGID_10_);}
	.st15{fill:url(#SVGID_11_);}
	.st16{fill:url(#SVGID_12_);}
	.st17{fill:url(#SVGID_13_);}
	.st18{fill:url(#SVGID_14_);}
	.st19{fill:url(#SVGID_15_);}
	.st20{fill:url(#SVGID_16_);}
	.st21{fill:url(#SVGID_17_);}
	.st22{fill:url(#SVGID_18_);}
	.st23{fill:url(#SVGID_19_);}
	.st24{fill:url(#SVGID_20_);}
	.st25{fill:url(#SVGID_21_);}
	.st26{fill:url(#SVGID_22_);}
	.st27{fill:url(#SVGID_23_);}
	.st28{fill:url(#SVGID_24_);}
	.st29{fill:url(#SVGID_25_);}
	.st30{fill:url(#SVGID_26_);}
	.st31{fill:url(#SVGID_27_);}
	.st32{fill:url(#SVGID_28_);}
	.st33{fill:url(#SVGID_29_);}
	.st34{fill:url(#SVGID_30_);}
	.st35{fill:url(#SVGID_31_);}
	.st36{fill:url(#SVGID_32_);}
	.st37{fill:url(#SVGID_33_);}
	.st38{fill:url(#SVGID_34_);}
	.st39{fill:url(#SVGID_35_);}
</style>
<g id="Background">
	<g>
		<g>
			<rect class="st0" width="3710" height="3710"/>
		</g>
	</g>
</g>
<g id="Illustration">
	<g>
		<linearGradient id="SVGID_1_" gradientUnits="userSpaceOnUse" x1="3588.7209" y1="4063.5381" x2="1115.3679" y2="991.7889">
			<stop  offset="0" style="stop-color:#DAE3FE"/>
			<stop  offset="1" style="stop-color:#E9EFFD"/>
		</linearGradient>
		<path class="st1" d="M2913.6,2848.4c-57.1,59.6-111.1,98-153.8,128.4c-501.8,357-1095.6,252.9-1221.8,227.5
			c-186.4-37.5-546.6-110.1-807-413.7c-394-459.4-332.7-1183.2-27-1660.9c55.9-87.4,351.2-572.4,951.4-650.2
			c363.2-47.1,786.6,47.9,1093.2,302.6C3392.2,1316.7,3346.4,2396.7,2913.6,2848.4z"/>
		<g>
			<g>
				<path class="st2" d="M977,1999.8c0,0-130-280.1-32.6-412.6c97.4-132.5,324.6-287.8,157-698.2C1003.2,648.7,963.8,542.1,948,495
					c-6.2-18.4-28.1-25.8-44.1-14.9c-113.3,77-472.7,347.4-437.6,657.7C507.9,1505.7,977,1999.8,977,1999.8z"/>
				<path class="st0" d="M857.7,634.7c-82.9,179.9-146.5,462-136.9,712.3c4.6,39.9,5.9,128.5,50.3,267.7
					c36.2,116.4,93.4,231.1,141.9,302.4c3.1,4.5,9.2,5.7,13.7,2.6c7.7-5.3,2.7-13.9,2.7-13.6c-74.6-125.4-139.6-293.7-165.9-459.6
					c-30.4-204.6,2.3-429.9,50.5-630l5.3-19.9c38.9-151.6,57-160.5,45.4-164.8C861.9,630.8,858.9,632.1,857.7,634.7z"/>
			</g>
			<g>
				<path class="st3" d="M1084.5,2097.1c-16,15.6,3.5-323.2-62.3-738.3c-31-195.6-7.9-406.3,68.8-530.6
					c63.9-103.4,379.3-153.9,483.3-167.9c13-1.8,22.2,12.4,15.2,23.5c-34.2,54.9-104.6,180.9-100.3,283.4
					c5.7,135.2-86.4,252.3-185,307.9c-98.5,55.6-150.4,95.4-147,280.8C1160.9,1741.4,1130.1,2052.9,1084.5,2097.1z"/>
				<path class="st0" d="M1453.3,757.7c-123.6,46-239.4,146.9-272.8,276.3l-3.1,12.3c-7.1,28.8-35.9,226.7-36.7,383.3
					c0,2,1.6,3.5,3.5,3.6c3.3,0,3.7-3.8,3.6-3.4c6.6-90.5,20.6-206.9,33.3-294.8c13.1-95.6,22.9-160.7,96.8-243.9
					c82.8-90.8,177.9-128.3,177.7-128.1c1.4-0.6,2.1-2.3,1.4-3.7C1456.3,757.8,1454.7,757.1,1453.3,757.7z"/>
			</g>
		</g>
		<g>
			<linearGradient id="SVGID_2_" gradientUnits="userSpaceOnUse" x1="1278.1083" y1="2249.5469" x2="3690.2751" y2="652.8837">
				<stop  offset="0" style="stop-color:#09005D"/>
				<stop  offset="1" style="stop-color:#1A0F91"/>
			</linearGradient>
			<path class="st4" d="M597.9,2601.4c0,24.9,20.4,45.3,45.3,45.3h2451.5c24.9,0,45.3-20.4,45.3-45.3l20.4-1408.8
				c0-24.9-29.3-73.5-83.1-69.9l-2395.8-62c-31.3-0.8-61.5,11.2-83.7,33.3c-22.2,22.1-34.3,52.3-33.5,83.5L597.9,2601.4z"/>
			<path class="st5" d="M642.7,2557.9c0,23.6,19.3,42.9,42.9,42.9h2350c23.6,0,42.9-19.3,42.9-42.9l19.2-1278.9
				c-2.3-77-69.7-104.6-110.6-103l-2296.2-61.6c-22-0.6-43.2,7.9-58.8,23.4s-24.1,36.8-23.6,58.8L642.7,2557.9z"/>
			<linearGradient id="SVGID_3_" gradientUnits="userSpaceOnUse" x1="1863.2133" y1="1707.0355" x2="1863.2133" y2="2305.2">
				<stop  offset="0" style="stop-color:#09005D"/>
				<stop  offset="1" style="stop-color:#1A0F91"/>
			</linearGradient>
			<path class="st6" d="M477.1,2763.6h2772.3c3.1,0,5.7-2.5,5.7-5.7v-112.5c0-3.1-2.5-5.7-5.7-5.7H477.1c-3.1,0-5.7,2.5-5.7,5.7
				V2758C471.4,2761.1,474,2763.6,477.1,2763.6z"/>
			<g>
				<path class="st7" d="M1416.6,1309l-623.5-4.4c-4.6,0-8.3-3.8-8.2-8.3l0.3-39.9c0-4.6,3.8-8.3,8.3-8.2l623.5,4.4
					c4.6,0,8.3,3.8,8.2,8.3l-0.3,39.9C1424.9,1305.4,1421.2,1309,1416.6,1309z"/>
				<path class="st7" d="M1817.6,1313.1l-208.7-1.5c-4.4,0-7.9-3.6-7.9-8l0.3-40.5c0-4.4,3.6-7.9,8-7.9l208.7,1.5
					c4.4,0,7.9,3.6,7.9,8l-0.3,40.5C1825.5,1309.6,1822,1313.1,1817.6,1313.1z"/>
				<path class="st7" d="M2302.7,1316.4l-418.3-2.9c-7,0-12.6-5.7-12.5-12.7l0.2-31.2c0-7,5.7-12.6,12.7-12.5l418.3,2.9
					c7,0,12.6,5.7,12.5,12.7l-0.2,31.2C2315.4,1310.9,2309.7,1316.5,2302.7,1316.4z"/>
				<path class="st7" d="M942.1,1404.9l-146.3-1c-7,0-12.6-5.7-12.5-12.7l0.2-31.2c0-7,5.7-12.6,12.7-12.5l146.3,1
					c7,0,12.6,5.7,12.5,12.7l-0.2,31.2C954.8,1399.3,949.1,1404.9,942.1,1404.9z"/>
				<path class="st7" d="M1417.2,1408.3l-448.9-3.1c-4.6,0-8.3-3.8-8.2-8.3l0.3-39.9c0-4.6,3.8-8.3,8.3-8.2l448.9,3.1
					c4.6,0,8.3,3.8,8.2,8.3l-0.3,39.9C1425.5,1404.7,1421.7,1408.3,1417.2,1408.3z"/>
				<path class="st7" d="M1818.7,1412.4l-208.7-1.5c-4.4,0-7.9-3.6-7.9-8l0.3-40.5c0-4.4,3.6-7.9,8-7.9l208.7,1.5
					c4.4,0,7.9,3.6,7.9,8l-0.3,40.5C1826.7,1408.9,1823.1,1412.4,1818.7,1412.4z"/>
				<path class="st7" d="M2665.1,1418.3l-624.5-4.4c-7,0-12.6-5.7-12.5-12.7l0.2-31.2c0-7,5.7-12.6,12.7-12.5l624.5,4.4
					c7,0,12.6,5.7,12.5,12.7l-0.2,31.2C2677.8,1412.7,2672.1,1418.3,2665.1,1418.3z"/>
				<path class="st7" d="M941.3,1504l-146.3-1c-7,0-12.6-5.7-12.5-12.7l0.2-31.2c0-7,5.7-12.6,12.7-12.5l146.3,1
					c7,0,12.6,5.7,12.5,12.7l-0.2,31.2C954,1498.5,948.3,1504.1,941.3,1504z"/>
				<path class="st7" d="M1416.3,1507.5l-448.9-3.1c-4.6,0-8.3-3.8-8.2-8.3l0.3-39.9c0-4.6,3.8-8.3,8.3-8.2l448.9,3.1
					c4.6,0,8.3,3.8,8.2,8.3l-0.3,39.9C1424.6,1503.8,1420.8,1507.5,1416.3,1507.5z"/>
				<path class="st7" d="M1817.8,1511.5l-208.7-1.5c-4.4,0-7.9-3.6-7.9-8l0.3-40.5c0-4.4,3.6-7.9,8-7.9l208.7,1.5
					c4.4,0,7.9,3.6,7.9,8l-0.3,40.5C1825.8,1508,1822.2,1511.5,1817.8,1511.5z"/>
				<path class="st7" d="M2940.9,1519.4l-821.4-5.8c-7,0-12.6-5.7-12.5-12.7l0.2-31.2c0-7,5.7-12.6,12.7-12.5l821.4,5.8
					c7,0,12.6,5.7,12.5,12.7l-0.2,31.2C2953.5,1513.8,2947.8,1519.4,2940.9,1519.4z"/>
				<path class="st7" d="M942,1603.3l-146.3-1c-7,0-12.6-5.7-12.5-12.7l0.2-31.2c0-7,5.7-12.6,12.7-12.5l146.3,1
					c7,0,12.6,5.7,12.5,12.7l-0.2,31.2C954.7,1597.8,949,1603.4,942,1603.3z"/>
				<path class="st7" d="M1418,1606.8l-448.9-3.1c-4.6,0-8.3-3.8-8.2-8.3l0.3-39.9c0-4.6,3.8-8.3,8.3-8.2l448.9,3.1
					c4.6,0,8.3,3.8,8.2,8.3l-0.3,39.9C1426.3,1603.1,1422.6,1606.8,1418,1606.8z"/>
				<path class="st7" d="M1818.9,1610.8l-208.7-1.5c-4.4,0-7.9-3.6-7.9-8l0.3-40.5c0-4.4,3.6-7.9,8-7.9l208.7,1.5
					c4.4,0,7.9,3.6,7.9,8l-0.3,40.5C1826.9,1607.3,1823.3,1610.8,1818.9,1610.8z"/>
				<path class="st7" d="M2944.6,1618.7l-821.4-5.8c-7,0-12.6-5.7-12.5-12.7l0.2-31.2c0-7,5.7-12.6,12.7-12.5l821.4,5.8
					c7,0,12.6,5.7,12.5,12.7l-0.2,31.2C2957.3,1613.1,2951.6,1618.7,2944.6,1618.7z"/>
				<path class="st7" d="M940.8,1706.3l-146.3-1c-7,0-12.6-5.7-12.5-12.7l0.2-31.2c0-7,5.7-12.6,12.7-12.5l146.3,1
					c7,0,12.6,5.7,12.5,12.7l-0.2,31.2C953.4,1700.8,947.7,1706.4,940.8,1706.3z"/>
				<path class="st7" d="M1416.4,1709.8l-448.9-3.1c-4.6,0-8.3-3.8-8.2-8.3l0.3-39.9c0-4.6,3.8-8.3,8.3-8.2l448.9,3.1
					c4.6,0,8.3,3.8,8.2,8.3l-0.3,39.9C1424.7,1706.1,1420.9,1709.8,1416.4,1709.8z"/>
				<path class="st7" d="M1817.5,1713.8l-208.7-1.5c-4.4,0-7.9-3.6-7.9-8l0.3-40.5c0-4.4,3.6-7.9,8-7.9l208.7,1.5
					c4.4,0,7.9,3.6,7.9,8l-0.3,40.5C1825.5,1710.3,1821.9,1713.8,1817.5,1713.8z"/>
				<path class="st7" d="M2942.2,1721.7l-821.4-5.8c-7,0-12.6-5.7-12.5-12.7l0.2-31.2c0-7,5.7-12.6,12.7-12.5l821.4,5.8
					c7,0,12.6,5.7,12.5,12.7l-0.2,31.2C2954.9,1716.1,2949.2,1721.7,2942.2,1721.7z"/>
				<path class="st7" d="M941.4,1805.6l-146.3-1c-7,0-12.6-5.7-12.5-12.7l0.2-31.2c0-7,5.7-12.6,12.7-12.5l146.3,1
					c7,0,12.6,5.7,12.5,12.7l-0.2,31.2C954.1,1800.1,948.4,1805.7,941.4,1805.6z"/>
				<path class="st7" d="M1418.1,1809.1l-448.9-3.1c-4.6,0-8.3-3.8-8.2-8.3l0.3-39.9c0-4.6,3.8-8.3,8.3-8.2l448.9,3.1
					c4.6,0,8.3,3.8,8.2,8.3l-0.3,39.9C1426.4,1805.4,1422.7,1809.1,1418.1,1809.1z"/>
				<path class="st7" d="M1818.6,1813.1l-208.7-1.5c-4.4,0-7.9-3.6-7.9-8l0.3-40.5c0-4.4,3.6-7.9,8-7.9l208.7,1.5
					c4.4,0,7.9,3.6,7.9,8l-0.3,40.5C1826.6,1809.6,1823,1813.1,1818.6,1813.1z"/>
				<path class="st7" d="M2374.4,1817l-493.5-3.5c-7,0-12.6-5.7-12.5-12.7l0.2-31.2c0-7,5.7-12.6,12.7-12.5l493.5,3.5
					c7,0,12.6,5.7,12.5,12.7l-0.2,31.2C2387.1,1811.4,2381.4,1817.1,2374.4,1817z"/>
				<path class="st7" d="M1417.5,1908.2l-627-4.4c-4.6,0-8.3-3.8-8.2-8.3l0.3-39.9c0-4.6,3.8-8.3,8.3-8.2l627,4.4
					c4.6,0,8.3,3.8,8.2,8.3l-0.3,39.9C1425.8,1904.6,1422.1,1908.3,1417.5,1908.2z"/>
				<path class="st7" d="M1817.8,1912.3l-208.7-1.5c-4.4,0-7.9-3.6-7.9-8l0.3-40.5c0-4.4,3.6-7.9,8-7.9l208.7,1.5
					c4.4,0,7.9,3.6,7.9,8l-0.3,40.5C1825.7,1908.8,1822.2,1912.3,1817.8,1912.3z"/>
				<path class="st7" d="M2618.6,1917.9l-621.5-4.4c-7,0-12.6-5.7-12.5-12.7l0.2-31.2c0-7,5.7-12.6,12.7-12.5l621.5,4.4
					c7,0,12.6,5.7,12.5,12.7l-0.2,31.2C2631.3,1912.3,2625.6,1917.9,2618.6,1917.9z"/>
				<path class="st7" d="M934.8,2004l-139.5-1c-7,0-12.6-5.7-12.5-12.7l0.2-31.2c0-7,5.7-12.6,12.7-12.5l139.5,1
					c7,0,12.6,5.7,12.5,12.7l-0.2,31.2C947.5,1998.5,941.8,2004.1,934.8,2004z"/>
				<path class="st7" d="M1419,2007.5l-448.9-3.1c-4.6,0-8.3-3.8-8.2-8.3l0.3-39.9c0-4.6,3.8-8.3,8.3-8.2l448.9,3.1
					c4.6,0,8.3,3.8,8.2,8.3l-0.3,39.9C1427.3,2003.9,1423.5,2007.6,1419,2007.5z"/>
				<path class="st7" d="M1818.9,2011.6l-208.7-1.5c-4.4,0-7.9-3.6-7.9-8l0.3-40.5c0-4.4,3.6-7.9,8-7.9l208.7,1.5
					c4.4,0,7.9,3.6,7.9,8l-0.3,40.5C1826.9,2008.1,1823.3,2011.6,1818.9,2011.6z"/>
				<path class="st7" d="M2945.7,2019.4l-850.2-6c-7,0-12.6-5.7-12.5-12.7l0.2-31.2c0-7,5.7-12.6,12.7-12.5l850.2,6
					c7,0,12.6,5.7,12.5,12.7l-0.2,31.2C2958.4,2013.9,2952.7,2019.5,2945.7,2019.4z"/>
				<path class="st7" d="M935.7,2300.3l-146.3-1c-7,0-12.6-5.7-12.5-12.7l0.2-31.2c0-7,5.7-12.6,12.7-12.5l146.3,1
					c7,0,12.6,5.7,12.5,12.7l-0.2,31.2C948.3,2294.8,942.6,2300.4,935.7,2300.3z"/>
				<path class="st7" d="M1412.6,2303.8l-448.9-3.1c-4.6,0-8.3-3.8-8.2-8.3l0.3-39.9c0-4.6,3.8-8.3,8.3-8.2l448.9,3.1
					c4.6,0,8.3,3.8,8.2,8.3l-0.3,39.9C1420.9,2300.1,1417.1,2303.8,1412.6,2303.8z"/>
				<path class="st7" d="M1812.9,2307.8l-208.7-1.5c-4.4,0-7.9-3.6-7.9-8l0.3-40.5c0-4.4,3.6-7.9,8-7.9l208.7,1.5
					c4.4,0,7.9,3.6,7.9,8l-0.3,40.5C1820.8,2304.3,1817.3,2307.9,1812.9,2307.8z"/>
				<path class="st7" d="M2368.6,2311.7l-493.5-3.5c-7,0-12.6-5.7-12.5-12.7l0.2-31.2c0-7,5.7-12.6,12.7-12.5l493.5,3.5
					c7,0,12.6,5.7,12.5,12.7l-0.2,31.2C2381.3,2306.1,2375.6,2311.8,2368.6,2311.7z"/>
				<path class="st7" d="M1412,2402.9l-627-4.4c-4.6,0-8.3-3.8-8.2-8.3l0.3-39.9c0-4.6,3.8-8.3,8.3-8.2l627,4.4
					c4.6,0,8.3,3.8,8.2,8.3l-0.3,39.9C1420.3,2399.3,1416.6,2403,1412,2402.9z"/>
				<path class="st7" d="M1812,2407l-208.7-1.5c-4.4,0-7.9-3.6-7.9-8l0.3-40.5c0-4.4,3.6-7.9,8-7.9l208.7,1.5c4.4,0,7.9,3.6,7.9,8
					l-0.3,40.5C1820,2403.5,1816.4,2407,1812,2407z"/>
				<path class="st7" d="M2612.5,2412.6l-621.5-4.4c-7,0-12.6-5.7-12.5-12.7l0.2-31.2c0-7,5.7-12.6,12.7-12.5l621.5,4.4
					c7,0,12.6,5.7,12.5,12.7l-0.2,31.2C2625.1,2407,2619.4,2412.6,2612.5,2412.6z"/>
				<path class="st7" d="M929.1,2498.7l-139.5-1c-7,0-12.6-5.7-12.5-12.7l0.2-31.2c0-7,5.7-12.6,12.7-12.5l139.5,1
					c7,0,12.6,5.7,12.5,12.7l-0.2,31.2C941.7,2493.2,936.1,2498.8,929.1,2498.7z"/>
				<path class="st7" d="M1413.4,2502.2l-448.9-3.1c-4.6,0-8.3-3.8-8.2-8.3l0.3-39.9c0-4.6,3.8-8.3,8.3-8.2l448.9,3.1
					c4.6,0,8.3,3.8,8.2,8.3l-0.3,39.9C1421.7,2498.6,1418,2502.3,1413.4,2502.2z"/>
				<path class="st7" d="M1813.1,2506.3l-208.7-1.5c-4.4,0-7.9-3.6-7.9-8l0.3-40.5c0-4.4,3.6-7.9,8-7.9l208.7,1.5
					c4.4,0,7.9,3.6,7.9,8l-0.3,40.5C1821.1,2502.8,1817.5,2506.3,1813.1,2506.3z"/>
				<path class="st7" d="M2939.6,2514.2l-850.2-6c-7,0-12.6-5.7-12.5-12.7l0.2-31.2c0-7,5.7-12.6,12.7-12.5l850.2,6
					c7,0,12.6,5.7,12.5,12.7l-0.2,31.2C2952.3,2508.6,2946.6,2514.2,2939.6,2514.2z"/>
				<path class="st7" d="M932.2,2105l-139.5-1c-7,0-12.6-5.7-12.5-12.7l0.2-31.2c0-7,5.7-12.6,12.7-12.5l139.5,1
					c7,0,12.6,5.7,12.5,12.7l-0.2,31.2C944.9,2099.4,939.2,2105.1,932.2,2105z"/>
				<path class="st7" d="M1414.7,2108.5l-448.9-3.1c-4.6,0-8.3-3.8-8.2-8.3l0.3-39.9c0-4.6,3.8-8.3,8.3-8.2l448.9,3.1
					c4.6,0,8.3,3.8,8.2,8.3l-0.3,39.9C1423,2104.8,1419.3,2108.5,1414.7,2108.5z"/>
				<path class="st7" d="M1815.6,2112.5l-208.7-1.5c-4.4,0-7.9-3.6-7.9-8l0.3-40.5c0-4.4,3.6-7.9,8-7.9l208.7,1.5
					c4.4,0,7.9,3.6,7.9,8l-0.3,40.5C1823.5,2109,1819.9,2112.5,1815.6,2112.5z"/>
				<path class="st7" d="M2938.3,2120.4l-850.2-6c-7,0-12.6-5.7-12.5-12.7l0.2-31.2c0-7,5.7-12.6,12.7-12.5l850.2,6
					c7,0,12.6,5.7,12.5,12.7l-0.2,31.2C2951,2114.8,2945.3,2120.4,2938.3,2120.4z"/>
				<path class="st7" d="M932.8,2204.3l-139.5-1c-7,0-12.6-5.7-12.5-12.7l0.2-31.2c0-7,5.7-12.6,12.7-12.5l139.5,1
					c7,0,12.6,5.7,12.5,12.7l-0.2,31.2C945.5,2198.7,939.8,2204.3,932.8,2204.3z"/>
				<path class="st7" d="M1416.4,2207.8l-448.9-3.1c-4.6,0-8.3-3.8-8.2-8.3l0.3-39.9c0-4.6,3.8-8.3,8.3-8.2l448.9,3.1
					c4.6,0,8.3,3.8,8.2,8.3l-0.3,39.9C1424.7,2204.1,1421,2207.8,1416.4,2207.8z"/>
				<path class="st7" d="M1816.7,2211.8l-208.7-1.5c-4.4,0-7.9-3.6-7.9-8l0.3-40.5c0-4.4,3.6-7.9,8-7.9l208.7,1.5
					c4.4,0,7.9,3.6,7.9,8l-0.3,40.5C1824.6,2208.3,1821.1,2211.8,1816.7,2211.8z"/>
				<path class="st7" d="M2942.2,2219.7l-850.2-6c-7,0-12.6-5.7-12.5-12.7l0.2-31.2c0-7,5.7-12.6,12.7-12.5l850.2,6
					c7,0,12.6,5.7,12.5,12.7l-0.2,31.2C2954.9,2214.1,2949.2,2219.7,2942.2,2219.7z"/>
				<path class="st7" d="M1513.9,2569.8l-11.4-0.1c-2.6,0-4.6-2.1-4.6-4.7l9.7-1381.6c0-2.6,2.1-4.6,4.7-4.6l11.4,0.1
					c2.6,0,4.6,2.1,4.6,4.7l-9.7,1381.6C1518.6,2567.7,1516.5,2569.8,1513.9,2569.8z"/>
			</g>
		</g>
		<g>
			<linearGradient id="SVGID_4_" gradientUnits="userSpaceOnUse" x1="2728.4373" y1="1665.8154" x2="2614.4949" y2="2456.7063">
				<stop  offset="0" style="stop-color:#FF928E"/>
				<stop  offset="1" style="stop-color:#FE7062"/>
			</linearGradient>
			<circle class="st8" cx="2682.6" cy="1984" r="241.3"/>
			<g>
				<path class="st0" d="M2617.9,2036.3l-94.8-48.3v-15.5l94.8-54.9v26.5l-65.6,35l65.6,30.9V2036.3z"/>
				<path class="st0" d="M2718.8,1896.2l-53.9,163l-27.1-0.3l53.5-162.4L2718.8,1896.2z"/>
				<path class="st0" d="M2738.8,2010.3l69.3-31.6l-69.3-35.5v-26.9l101.1,55.4v16.3l-101.1,49.2V2010.3z"/>
			</g>
		</g>
		<g>
			<linearGradient id="SVGID_5_" gradientUnits="userSpaceOnUse" x1="1879.7563" y1="721.8387" x2="2362.3093" y2="721.8387">
				<stop  offset="0" style="stop-color:#4F52FF"/>
				<stop  offset="1" style="stop-color:#4042E2"/>
			</linearGradient>
			<circle class="st9" cx="2121" cy="721.8" r="241.3"/>
			<g>
				<linearGradient id="SVGID_6_" gradientUnits="userSpaceOnUse" x1="2004.8362" y1="713.2587" x2="2073.6543" y2="713.2587">
					<stop  offset="0" style="stop-color:#DAE3FE"/>
					<stop  offset="1" style="stop-color:#E9EFFD"/>
				</linearGradient>
				<path class="st10" d="M2024.1,818.2c-7.4-0.1-13.8-1-19.3-2.8v-28.3c5.6,1.5,10.7,2.3,15.4,2.4c7.2,0.1,12.4-2.2,15.5-6.8
					c3.1-4.7,4.7-12,4.7-21.9V609.1l33.3-0.8v152.3c0,19-4.2,33.4-12.6,43.3C2052.7,813.7,2040.4,818.5,2024.1,818.2z"/>
				<linearGradient id="SVGID_7_" gradientUnits="userSpaceOnUse" x1="2111.1563" y1="708.8457" x2="2235.875" y2="708.8457">
					<stop  offset="0" style="stop-color:#DAE3FE"/>
					<stop  offset="1" style="stop-color:#E9EFFD"/>
				</linearGradient>
				<path class="st11" d="M2235.9,752.3c0,17.7-6.4,31.6-19,41.6c-12.6,10-30.1,14.8-52.2,14.4c-20.3-0.3-38.1-4.4-53.5-12.3v-37.7
					c12.6,5.8,23.4,10,32.2,12.4c8.9,2.4,17,3.7,24.4,3.8c8.9,0.1,15.7-1.6,20.5-5c4.8-3.4,7.2-8.5,7.2-15.4c0-3.8-1.1-7.2-3.2-10.2
					c-2.1-3-5.2-5.8-9.3-8.6c-4.1-2.7-12.3-7.1-24.8-13.1c-11.6-5.5-20.3-10.8-26-15.9c-5.7-5-10.3-10.9-13.7-17.6
					c-3.4-6.7-5.1-14.5-5.1-23.5c0-16.9,5.6-30.3,16.9-40.3c11.3-10,27-15.2,47.2-15.7c10-0.2,19.5,0.7,28.7,2.9
					c9.2,2.2,18.8,5.4,28.8,9.5l-13.4,32.5c-10.4-4.1-18.9-7-25.7-8.5c-6.7-1.6-13.3-2.3-19.8-2.2c-7.7,0.1-13.5,2-17.6,5.7
					c-4.1,3.7-6.1,8.4-6.1,14.2c0,3.6,0.8,6.7,2.5,9.4c1.6,2.7,4.3,5.2,7.9,7.7c3.6,2.5,12.2,6.9,25.7,13.4
					c18,8.6,30.5,17.3,37.3,26C2232.5,728.8,2235.9,739.6,2235.9,752.3z"/>
			</g>
		</g>
		<g>
			<linearGradient id="SVGID_8_" gradientUnits="userSpaceOnUse" x1="2698.2524" y1="536.4241" x2="2530.6902" y2="1514.9855">
				<stop  offset="0" style="stop-color:#FF928E"/>
				<stop  offset="1" style="stop-color:#FE7062"/>
			</linearGradient>
			<circle class="st12" cx="2645.7" cy="843.2" r="238.8"/>
			<g>
				<path class="st0" d="M2550.6,893.2l-17.4-1v-37.8l-32.4-1.6v37.6l-17.2-1v-86.8l17.2,0.7v34.1l32.4,1.5v-34.3l17.4,0.7V893.2z"
					/>
				<path class="st0" d="M2609.7,896.5l-17.8-1v-72.7l-22.7-1v-15.5l63.5,2.6v15.7l-23-1V896.5z"/>
				<path class="st0" d="M2688.1,900.8l-20.7-71.2l-0.5,0c0.7,14.3,1.1,23.8,1.1,28.6v41.6l-16.2-0.9v-89.1l24.7,1l20.4,69.5l0.4,0
					l21.8-67.7l25.3,1.1v90.4l-17.3-1v-42.7c0-2,0-4.3,0.1-7c0.1-2.6,0.3-9.6,0.8-20.9l-0.5,0l-22.5,69.4L2688.1,900.8z"/>
				<path class="st0" d="M2772.7,905.5v-90.8l18.8,0.8v75.1l36.3,1.9v16L2772.7,905.5z"/>
			</g>
		</g>
		<g>
			<linearGradient id="SVGID_9_" gradientUnits="userSpaceOnUse" x1="2597.4473" y1="1421.3883" x2="3051.1343" y2="1421.3883">
				<stop  offset="0" style="stop-color:#4F52FF"/>
				<stop  offset="1" style="stop-color:#4042E2"/>
			</linearGradient>
			<circle class="st13" cx="2824.3" cy="1421.4" r="226.8"/>
			<g>
				<linearGradient id="SVGID_10_" gradientUnits="userSpaceOnUse" x1="2671.0112" y1="1419.3252" x2="2758.6941" y2="1419.3252">
					<stop  offset="0" style="stop-color:#DAE3FE"/>
					<stop  offset="1" style="stop-color:#E9EFFD"/>
				</linearGradient>
				<path class="st14" d="M2724.4,1376.1c-9.2-0.1-16.3,3.7-21.3,11.2c-5,7.5-7.4,18.1-7.4,31.7c0.1,28.3,9.6,42.8,28.9,43.5
					c8.2,0.3,18.1-1.5,29.9-5.6l0,23c-9.7,4-20.4,5.7-32.1,5.1c-16.7-0.8-29.4-7-38.2-18.5c-8.7-11.5-13-27.5-13.1-48.3
					c0-13.1,2.1-24.5,6.3-34.3c4.2-9.8,10.4-17.4,18.4-22.6c8.1-5.3,17.6-7.9,28.6-7.9c11.3,0,22.8,3.1,34.4,9.2l-8.1,22.2
					c-4.4-2.4-8.8-4.4-13.3-6.2C2732.9,1377.1,2728.6,1376.2,2724.4,1376.1z"/>
				<linearGradient id="SVGID_11_" gradientUnits="userSpaceOnUse" x1="2780.761" y1="1421.6238" x2="2861.311" y2="1421.6238">
					<stop  offset="0" style="stop-color:#DAE3FE"/>
					<stop  offset="1" style="stop-color:#E9EFFD"/>
				</linearGradient>
				<path class="st15" d="M2861.3,1452.6c0,12.1-4.1,21.4-12.3,28c-8.2,6.6-19.4,9.5-33.7,8.8c-13.1-0.6-24.6-3.8-34.5-9.5l0-25.7
					c8.1,4.2,15.1,7.3,20.8,9.1c5.7,1.8,11,2.9,15.7,3c5.7,0.2,10.2-0.8,13.3-3c3.1-2.2,4.6-5.7,4.6-10.4c0-2.6-0.7-4.9-2.1-7
					c-1.4-2.1-3.4-4.1-6-6c-2.6-2-8-5.1-16-9.4c-7.5-4-13.1-7.8-16.8-11.3c-3.7-3.6-6.7-7.6-8.9-12.3c-2.2-4.6-3.3-10-3.3-16.1
					c0-11.6,3.6-20.6,10.9-27.2c7.3-6.6,17.4-9.9,30.5-9.9c6.5,0,12.6,0.9,18.6,2.5c5.9,1.7,12.2,4,18.7,7l-8.7,22
					c-6.7-3-12.3-5.1-16.6-6.3c-4.4-1.2-8.6-1.8-12.8-1.9c-5,0-8.8,1.1-11.4,3.6c-2.6,2.4-3.9,5.6-3.9,9.6c0,2.5,0.5,4.6,1.6,6.5
					c1.1,1.9,2.8,3.7,5.1,5.4c2.3,1.8,7.9,5,16.6,9.6c11.7,6.2,19.7,12.4,24.1,18.5C2859.1,1436.4,2861.3,1443.8,2861.3,1452.6z"/>
				<linearGradient id="SVGID_12_" gradientUnits="userSpaceOnUse" x1="2885.573" y1="1424.2754" x2="2971.9016" y2="1424.2754">
					<stop  offset="0" style="stop-color:#DAE3FE"/>
					<stop  offset="1" style="stop-color:#E9EFFD"/>
				</linearGradient>
				<path class="st16" d="M2971.9,1456.4c0,12.5-4.4,22.2-13.2,29c-8.7,6.8-20.8,9.8-36.2,9.1c-14-0.7-26.3-3.9-36.9-9.8l0-26.6
					c8.7,4.4,16.1,7.5,22.2,9.4c6.1,1.9,11.7,3,16.8,3.2c6.2,0.2,10.9-0.8,14.2-3.1c3.3-2.3,5-5.9,5-10.7c0-2.7-0.7-5.1-2.2-7.3
					c-1.5-2.1-3.6-4.2-6.4-6.3c-2.8-2-8.5-5.3-17.1-9.8c-8-4.1-14-8-18-11.7c-4-3.7-7.1-7.9-9.5-12.7c-2.4-4.8-3.5-10.4-3.5-16.7
					c0-12,3.9-21.3,11.7-28.1c7.8-6.8,18.7-10.3,32.7-10.2c6.9,0,13.5,0.9,19.9,2.6c6.4,1.7,13,4.2,20,7.3l-9.3,22.8
					c-7.2-3.1-13.1-5.3-17.8-6.5c-4.7-1.2-9.2-1.9-13.7-1.9c-5.3-0.1-9.4,1.2-12.2,3.7c-2.8,2.5-4.2,5.8-4.2,9.9
					c0,2.6,0.6,4.8,1.7,6.7c1.1,1.9,3,3.8,5.4,5.6c2.5,1.8,8.4,5.1,17.8,10c12.5,6.4,21.1,12.8,25.8,19.2
					C2969.6,1439.6,2971.9,1447.3,2971.9,1456.4z"/>
			</g>
		</g>
		<g>
			<linearGradient id="SVGID_13_" gradientUnits="userSpaceOnUse" x1="1431.6017" y1="1616.5239" x2="1873.9426" y2="691.6309">
				<stop  offset="0" style="stop-color:#E1473D"/>
				<stop  offset="1" style="stop-color:#E9605A"/>
			</linearGradient>
			<path class="st17" d="M1032.2,2634.2c-6.9,7-5.1,18.8,3.6,23.5c39.8,21.9,139.8,61.5,224.1-31.6c108-119.3,371-675.9,403.4-818.8
				c32.4-142.9,155.1-363.1,222.5-389.1c67.4-26-142.8-11.2-201.4-10.2c-58.5,1-100.7-28-65.9-41.3c0,0-178-69.5-311.5,137.2
				c-80.7,124.9-340.4,702.1-555.8,765.4c-8,2.3,37.2,33,40.7,40.5c20.7,44.6,96.9,176.6,296.7,245.7
				C1088.7,2555.5,1062.8,2603.1,1032.2,2634.2z"/>
			
				<linearGradient id="SVGID_14_" gradientUnits="userSpaceOnUse" x1="935.404" y1="3156.7852" x2="1187.6219" y2="3156.7852" gradientTransform="matrix(1 0 0 1 646.4113 0)">
				<stop  offset="0" style="stop-color:#4F52FF"/>
				<stop  offset="1" style="stop-color:#4042E2"/>
			</linearGradient>
			<path class="st18" d="M1826.9,3144.6c-43.2,3.7-118.2,9.8-177.3,12.4c-35.5,1.6-56-1.9-67.8-6.6c0,1.3,0.1,2.6,0.1,3.7
				c0.3,6.2,5.3,11.2,11.6,11.5c111.7,6.2,200.5,2.2,232.2,0.2c6.5-0.4,10.4-7.5,7.1-13.1C1831.1,3150,1829.1,3147.3,1826.9,3144.6z
				"/>
			
				<linearGradient id="SVGID_15_" gradientUnits="userSpaceOnUse" x1="935.3896" y1="3107.3538" x2="1180.4996" y2="3107.3538" gradientTransform="matrix(1 0 0 1 646.4113 0)">
				<stop  offset="0" style="stop-color:#09005D"/>
				<stop  offset="1" style="stop-color:#1A0F91"/>
			</linearGradient>
			<path class="st19" d="M1649.6,3157c59.1-2.6,134.1-8.7,177.3-12.4c-42.5-52.1-177.3-87.2-177.3-87.2h-38.1
				c-26.2,37.8-30,73.7-29.7,93C1593.6,3155.1,1614.1,3158.6,1649.6,3157z"/>
			
				<linearGradient id="SVGID_16_" gradientUnits="userSpaceOnUse" x1="958.6895" y1="3038.3406" x2="1029.7343" y2="3038.3406" gradientTransform="matrix(1 0 0 1 646.4113 0)">
				<stop  offset="0" style="stop-color:#FEBBBA"/>
				<stop  offset="1" style="stop-color:#FF928E"/>
			</linearGradient>
			<path class="st20" d="M1605.1,2995.2l3.6,70.5c0.4,7.6,6.1,14.1,13.8,15.1c7.6,1.1,17.8,1.2,28.6-2.4c6.6-2.2,11.6-7.8,12.8-14.6
				l12.3-68.6H1605.1z"/>
			<g>
				
					<linearGradient id="SVGID_17_" gradientUnits="userSpaceOnUse" x1="485.2288" y1="3219.3271" x2="581.8826" y2="3219.3271" gradientTransform="matrix(1 0 0 1 646.4113 0)">
					<stop  offset="0" style="stop-color:#4F52FF"/>
					<stop  offset="1" style="stop-color:#4042E2"/>
				</linearGradient>
				<path class="st21" d="M1163.1,3225.9c-18.7-3.4-27.2-16-30.8-29.4c0,0.1,0,0.2-0.1,0.4c-2.8,14.2,3.6,28.9,16.4,35.9
					c15.4,8.5,32.3,9.9,45.4,9.2c14.1-0.7,27-8.3,34.1-20.3l0.1-0.2C1214.2,3230.5,1194.4,3231.6,1163.1,3225.9z"/>
				
					<linearGradient id="SVGID_18_" gradientUnits="userSpaceOnUse" x1="485.9317" y1="3123.145" x2="627.801" y2="3123.145" gradientTransform="matrix(1 0 0 1 646.4113 0)">
					<stop  offset="0" style="stop-color:#09005D"/>
					<stop  offset="1" style="stop-color:#1A0F91"/>
				</linearGradient>
				<path class="st22" d="M1251.5,3016.9h-31.4c-47.8-1.3-77.9,129.1-87.7,179.6c3.6,13.4,12,26,30.8,29.4
					c31.2,5.6,51.1,4.6,65.2-4.5c25.8-44,38.7-108.3,44.8-145.9C1280.1,3032.9,1251.5,3016.9,1251.5,3016.9z"/>
			</g>
			
				<linearGradient id="SVGID_19_" gradientUnits="userSpaceOnUse" x1="559.6732" y1="3001.2935" x2="644.5788" y2="3001.2935" gradientTransform="matrix(1 0 0 1 646.4113 0)">
				<stop  offset="0" style="stop-color:#FEBBBA"/>
				<stop  offset="1" style="stop-color:#FF928E"/>
			</linearGradient>
			<path class="st23" d="M1224.1,2951.4l-17.4,69.4c-2.1,8.5,1.9,17.3,9.8,21.3c9.8,5,23.5,10.3,36.1,8.7
				c5.9-0.7,10.9-4.9,12.8-10.5l25.6-73L1224.1,2951.4z"/>
			
				<linearGradient id="SVGID_20_" gradientUnits="userSpaceOnUse" x1="1246.437" y1="2085.0566" x2="521.5377" y2="3272.5115" gradientTransform="matrix(1 0 0 1 646.4113 0)">
				<stop  offset="0" style="stop-color:#4F52FF"/>
				<stop  offset="1" style="stop-color:#4042E2"/>
			</linearGradient>
			<path class="st24" d="M1837.5,2037.9c0,0-155.8,974.1-153.3,979.5c0,0-43,19.6-90,2.5c0,0,14.1-520.8,47.1-720.4
				c0,0-266,465.5-350.4,697.4c0,0-44.1-5.3-80.5-29.3c0,0,286.4-837.8,362.8-949.4L1837.5,2037.9z"/>
			<linearGradient id="SVGID_21_" gradientUnits="userSpaceOnUse" x1="1811.8075" y1="1034.743" x2="1761.5416" y2="1567.5618">
				<stop  offset="0" style="stop-color:#4F52FF"/>
				<stop  offset="1" style="stop-color:#4042E2"/>
			</linearGradient>
			<path class="st25" d="M1647.6,2293.7c-0.7,0-1.4-0.2-2.1-0.6c-1.8-1.1-2.4-3.5-1.2-5.4l58.2-93c0.6-0.9,1.5-1.5,2.5-1.7l42.9-8.6
				c2.1-0.4,4.1,0.9,4.6,3c0.4,2.1-0.9,4.1-3,4.6l-41.2,8.3l-57.4,91.6C1650.2,2293.1,1648.9,2293.7,1647.6,2293.7z"/>
			<linearGradient id="SVGID_22_" gradientUnits="userSpaceOnUse" x1="1708.4897" y1="1515.9335" x2="1371.7072" y2="2285.0051">
				<stop  offset="0" style="stop-color:#FE7062"/>
				<stop  offset="1" style="stop-color:#FF928E"/>
			</linearGradient>
			<path class="st26" d="M1894.8,1364.2c-10.5-3.6-21.5-5.8-32.6-6.4c-60.8-3.6-261.2-10.1-427,44.7c-34.9,11.5-63.2,37.3-77.7,70.7
				c-44.8,102.9-117.5,337.3,84.1,455.6c15.5-38.4,33.4-69.4,48.6-92.1c-32.5-54.8-42.1-129.5,15.5-226.9
				c42,113.4,61.7,278.9,65.8,352.1c1.4,24.1-2.9,48.2-12.3,70.4l-1,2.4c-2,4.8,0.8,10.2,5.9,11.4c113.5,25.5,231.5,18.6,266.8,15.7
				c6.3-0.5,11.5-5,13-11.1c55.2-232.5,55.3-391.1,41.8-491.4C1937.2,1571,2009,1403.7,1894.8,1364.2z"/>
			
				<linearGradient id="SVGID_23_" gradientUnits="userSpaceOnUse" x1="977.9641" y1="1495.6006" x2="1014.7529" y2="1302.4594" gradientTransform="matrix(1 0 0 1 646.4113 0)">
				<stop  offset="0" style="stop-color:#FEBBBA"/>
				<stop  offset="1" style="stop-color:#FF928E"/>
			</linearGradient>
			<path class="st27" d="M1605.8,1222.3c0,0-11.5,121.4-21.6,157.3c-1.5,5.4,0.8,11.2,5.8,14c17.2,9.8,58.3,25.8,114.6-1.8
				c9.1-4.5,14.6-14,14.2-24l-5-117.3L1605.8,1222.3z"/>
			<g>
				
					<linearGradient id="SVGID_24_" gradientUnits="userSpaceOnUse" x1="1077.5094" y1="1141.2478" x2="867.6068" y2="1301.8553" gradientTransform="matrix(1 0 0 1 646.4113 0)">
					<stop  offset="0" style="stop-color:#FEBBBA"/>
					<stop  offset="1" style="stop-color:#FF928E"/>
				</linearGradient>
				<path class="st28" d="M1716.2,1067c0,0,36.7,84.3,39.2,128.6c2.5,44.3,12,73-39.2,81.9c-51.2,8.9-94.3-16.6-117.7-60.7
					c0,0-36.6-68-28.4-95.8C1578.4,1093.2,1716.2,1067,1716.2,1067z"/>
				
					<linearGradient id="SVGID_25_" gradientUnits="userSpaceOnUse" x1="929.7471" y1="1014.0815" x2="1125.2385" y2="1265.7762" gradientTransform="matrix(1 0 0 1 646.4113 0)">
					<stop  offset="0" style="stop-color:#09005D"/>
					<stop  offset="1" style="stop-color:#1A0F91"/>
				</linearGradient>
				<path class="st29" d="M1616,1185.1l2.9-1.3c3.7-1.6,5.3-6.1,3.4-9.7c-7.2-13.9-21.3-45.9-3.1-53.4
					c23.4-9.6,116.2-28.5,136.3-61.5c19.2-31.6,2.2-72.5-23.4-84.1c-1.7-0.8-3.7-0.2-4.6,1.5l-2.1,4c-1.5,2.8-5.5,2.3-6.4-0.7v0
					c-0.8-2.9-4.7-3.4-6.3-0.9c-6.2,9.9-22.8,25.8-67.2,34c-63.2,11.7-104.9,37.2-105.9,80.8c-0.1,2.8-3,4.3-5.4,2.9
					c-4.7-2.8-12.1-4.2-22.1,4.2c-17.3,14.6-10.2,52.4,27.8,83.5c1.8,1.5,1.8,4.3-0.2,5.6c-6.9,4.5-17.2,15.2,9.5,29.4
					c27.5,14.7,48.1,13.5,56,12.2c2-0.3,3.2-2.2,2.8-4.2l-8.5-38.4c-0.5-2.2,1.2-4.2,3.4-4.2H1616z"/>
				
					<linearGradient id="SVGID_26_" gradientUnits="userSpaceOnUse" x1="1051.4741" y1="1107.2202" x2="841.5706" y2="1267.8284" gradientTransform="matrix(1 0 0 1 646.4113 0)">
					<stop  offset="0" style="stop-color:#FEBBBA"/>
					<stop  offset="1" style="stop-color:#FF928E"/>
				</linearGradient>
				<path class="st30" d="M1617.6,1193.2c0,0-14-53.9-38.2-38.8c-24.2,15.1,12.5,60.4,32,62.4L1617.6,1193.2z"/>
			</g>
			
				<linearGradient id="SVGID_27_" gradientUnits="userSpaceOnUse" x1="1211.6394" y1="1191.8198" x2="1437.8362" y2="478.0439" gradientTransform="matrix(1 0 0 1 646.4113 0)">
				<stop  offset="0" style="stop-color:#FEBBBA"/>
				<stop  offset="1" style="stop-color:#FF928E"/>
			</linearGradient>
			<path class="st31" d="M1616.6,2011.7l165.7-3.6c0,0-144.5-40.8-153.5-29.7c0,0-89.6-58.8-138.6-141.6
				c-15.3,22.7-33.2,53.6-48.6,92.1C1485.6,1954.7,1543.3,1999.5,1616.6,2011.7z"/>
			
				<linearGradient id="SVGID_28_" gradientUnits="userSpaceOnUse" x1="-540.2106" y1="-10631.9619" x2="-314.0135" y2="-11345.7383" gradientTransform="matrix(-1 0 0 1 -2825.4714 0)">
				<stop  offset="0" style="stop-color:#FEBBBA"/>
				<stop  offset="1" style="stop-color:#FF928E"/>
			</linearGradient>
			<path class="st32" d="M1611.9,1983c0,0-3.4,66,83.2,56.4c47.1-5.2,123.1-49.1,123.1-49.1S1620.1,1989.8,1611.9,1983z"/>
			<g>
				
					<linearGradient id="SVGID_29_" gradientUnits="userSpaceOnUse" x1="1193.8135" y1="2025.7871" x2="920.1326" y2="2100.7959" gradientTransform="matrix(-0.9988 -4.940000e-02 -4.940000e-02 0.9988 2888.5449 -55.0328)">
					<stop  offset="0" style="stop-color:#09005D"/>
					<stop  offset="1" style="stop-color:#1A0F91"/>
				</linearGradient>
				<path class="st33" d="M1653.7,1999.4c0.3,0,0.5,0,0.8,0l339.7-0.4c8.4,0,15.2-6.7,15.2-15.1c0-8.3-6.8-15.2-15.2-15l-339.7,0.4
					c-8.4,0-15.2,6.7-15.2,15.1C1639.3,1992.5,1645.7,1999,1653.7,1999.4z"/>
				
					<linearGradient id="SVGID_30_" gradientUnits="userSpaceOnUse" x1="879.849" y1="1734.7089" x2="686.8017" y2="1938.7479" gradientTransform="matrix(-1 0 0 1 2847.0757 0)">
					<stop  offset="0" style="stop-color:#09005D"/>
					<stop  offset="1" style="stop-color:#1A0F91"/>
				</linearGradient>
				<path class="st34" d="M2299.6,1694.3h-282.9c-20.9,0-39.9,11.9-48.8,30.6l-130.8,274.4h351.6c13.4,0,25.5-8.1,30.5-20.5
					l101.4-253.9C2326.4,1710.2,2315.5,1694.3,2299.6,1694.3z"/>
				
					<linearGradient id="SVGID_31_" gradientUnits="userSpaceOnUse" x1="762.7894" y1="1785.7064" x2="675.526" y2="1917.1151" gradientTransform="matrix(-1 0 0 1 2847.0757 0)">
					<stop  offset="0" style="stop-color:#53D8FF"/>
					<stop  offset="1" style="stop-color:#3840F7"/>
				</linearGradient>
				<path class="st35" d="M2100.3,1835c-6.1,18.8-1.6,37.1,10.1,40.9c11.7,3.7,26.2-8.5,32.3-27.4c6.1-18.8,1.6-37.1-10.1-40.9
					C2120.9,1803.9,2106.4,1816.1,2100.3,1835z"/>
			</g>
			<g>
				<linearGradient id="SVGID_32_" gradientUnits="userSpaceOnUse" x1="1977.9874" y1="1633.9485" x2="1641.2059" y2="2403.0176">
					<stop  offset="0" style="stop-color:#FE7062"/>
					<stop  offset="1" style="stop-color:#FF928E"/>
				</linearGradient>
				<path class="st36" d="M2239,1550.5c-131.9,5.5-195.3-91-253-147.5c-76.2-74.6-156.8-44.2-156.8-44.2l61.3,200
					c119.1,139.3,267.2,105.2,357.3,73.9C2252.6,1600.1,2246.8,1571.8,2239,1550.5z"/>
				
					<linearGradient id="SVGID_33_" gradientUnits="userSpaceOnUse" x1="7915.9521" y1="-2555.7681" x2="8217.5508" y2="-2691.4873" gradientTransform="matrix(0.9942 0.1073 -0.1073 0.9942 3123.9341 339.0102)">
					<stop  offset="0" style="stop-color:#FEBBBA"/>
					<stop  offset="1" style="stop-color:#FF928E"/>
				</linearGradient>
				<path class="st37" d="M2429.8,1492.7l-45.5,18.5c-55,25.9-103,37.5-145.3,39.2c7.9,21.3,13.6,49.7,8.8,82.2
					c57.3-19.9,94.9-47.2,94.9-47.2C2446.4,1537.9,2429.8,1492.7,2429.8,1492.7z"/>
			</g>
			
				<linearGradient id="SVGID_34_" gradientUnits="userSpaceOnUse" x1="7923.5498" y1="-2539.9763" x2="8225.1621" y2="-2675.7014" gradientTransform="matrix(0.9942 0.1073 -0.1073 0.9942 3123.9341 339.0102)">
				<stop  offset="0" style="stop-color:#FEBBBA"/>
				<stop  offset="1" style="stop-color:#FF928E"/>
			</linearGradient>
			<path class="st38" d="M2550.1,1567.1c-1.8-9.5-7.8-17.7-16.4-22.3l-83.6-44.6c0,0-0.1-11.3,20.5-16.8
				c20.6-5.5,18.4-28.1,18.4-28.1s-28.3,9.4-70,24.7c-23.8,8.7-38.7,27.1-47,41.2l19.3,32c52.1,22,106.3,31,161.9,30.5
				L2550.1,1567.1z"/>
			<linearGradient id="SVGID_35_" gradientUnits="userSpaceOnUse" x1="1845.5226" y1="1489.6166" x2="1885.8088" y2="1489.6166">
				<stop  offset="0" style="stop-color:#E1473D"/>
				<stop  offset="1" style="stop-color:#E9605A"/>
			</linearGradient>
			<path class="st39" d="M1845.5,1418.2c0,0,27,42.5,40.3,142.9L1845.5,1418.2z"/>
		</g>
	</g>
</g>
</svg>
